<?xml version="1.0" encoding="UTF-8"?>
<svg version="1.1" xmlns="http://www.w3.org/2000/svg" width="360" height="405">
<path d="M0 0 C0.96953613 0.01466309 1.93907227 0.02932617 2.93798828 0.04443359 C10.80132266 0.36557327 16.52910398 2.20106571 23.20800781 6.46582031 C25.6113737 7.97726275 28.06133111 9.3909507 30.5234375 10.8046875 C34.62034825 13.16116329 38.70245004 15.54041465 42.7734375 17.94140625 C49.2017352 21.72898958 55.65921373 25.46436108 62.125 29.1875 C63.20426758 29.80947266 64.28353516 30.43144531 65.39550781 31.07226562 C67.58614966 32.3346694 69.776905 33.59687623 71.96777344 34.85888672 C77.39659942 37.98680148 82.82319281 41.11858448 88.25 44.25 C90.41665583 45.50001879 92.5833225 46.75001878 94.75 48 C99.08333333 50.5 103.41666667 53 107.75 55.5 C108.82338623 56.1192334 109.89677246 56.7384668 111.00268555 57.37646484 C113.16049803 58.62141282 115.31821353 59.8665289 117.47583008 61.11181641 C123.02716592 64.31552651 128.58036541 67.5159363 134.13671875 70.7109375 C139.57582922 73.83915266 145.00884049 76.9777095 150.4375 80.12402344 C152.94331544 81.57269799 155.4552135 83.01010068 157.96875 84.4453125 C169.31072564 90.9795246 176.49234043 96.69563638 180.25 109.75 C181.13570978 115.81382436 180.94560464 121.97567412 180.9128418 128.08789062 C180.92126964 129.91254213 180.93180122 131.73718492 180.94425964 133.56181335 C180.97116978 138.48546144 180.96664396 143.40859995 180.95455909 148.33228874 C180.94739686 152.45495254 180.95594787 156.57752395 180.96446449 160.70018053 C180.98437293 170.43057712 180.97889638 180.16072776 180.95678711 189.89111328 C180.9344199 199.90472038 180.95203637 209.91768287 180.98983639 219.93122911 C181.02113457 228.55414229 181.02896714 237.1768566 181.01788265 245.79981947 C181.01141696 250.93881304 181.0132956 256.07743483 181.03720665 261.21638489 C181.05855336 266.04962989 181.05035833 270.88196967 181.02011299 275.71515846 C181.0138186 277.4807097 181.01756597 279.24633219 181.03252411 281.01183128 C181.12863039 293.36354266 179.60874403 302.88815862 171.11328125 312.5625 C166.44264225 316.79020056 160.91993971 319.71291801 155.4375 322.75 C153.69405382 323.7354261 151.95061738 324.72086996 150.20779419 325.70739746 C148.40915686 326.72372922 146.60786773 327.73523053 144.80615234 328.74609375 C139.25888081 331.86434789 133.75715277 335.06162634 128.25 338.25 C126.08354229 339.50036211 123.916875 340.75036119 121.75 342 C120.6775 342.61875 119.605 343.2375 118.5 343.875 C82.75 364.5 82.75 364.5 79.49902344 366.37548828 C77.33552524 367.62371034 75.17211357 368.87208239 73.00878906 370.12060547 C67.54434983 373.27405256 62.07836355 376.42476096 56.609375 379.5703125 C54.40618454 380.83842794 52.20305903 382.10665624 50 383.375 C48.93168945 383.98947998 47.86337891 384.60395996 46.76269531 385.23706055 C41.46477774 388.29140622 36.18591753 391.37297528 30.9375 394.51171875 C29.9362207 395.10968262 28.93494141 395.70764648 27.90332031 396.32373047 C26.02447695 397.44895099 24.14861079 398.57916412 22.27636719 399.71533203 C14.8811125 404.14595043 9.0477712 406.11054111 0.4375 406.125 C-0.31853516 406.14949219 -1.07457031 406.17398437 -1.85351562 406.19921875 C-12.77638536 406.25509021 -21.64607279 399.68076138 -30.8125 394.375 C-32.05776347 393.65854255 -33.30320932 392.94240199 -34.54882812 392.2265625 C-43.27940428 387.20309866 -51.97966123 382.12755942 -60.67260742 377.03930664 C-68.29604006 372.58219209 -75.95395473 368.18696948 -83.625 363.8125 C-102.19419418 353.2218479 -120.72567679 342.56574982 -139.16674805 331.75317383 C-143.83170888 329.02020982 -148.50702795 326.31356953 -153.2265625 323.67578125 C-154.08709229 323.19077148 -154.94762207 322.70576172 -155.83422852 322.20605469 C-157.41787619 321.31555514 -159.00648635 320.43378702 -160.60131836 319.56347656 C-169.09949999 314.76355091 -176.12742522 307.95822375 -179.75 298.75 C-180.62556827 292.58173576 -180.5720391 286.47566839 -180.52636719 280.25610352 C-180.5345081 278.39071426 -180.54519719 276.52533466 -180.55822754 274.65997314 C-180.58547684 269.61635653 -180.57501821 264.57348 -180.55595303 259.5298512 C-180.54070664 254.23789379 -180.55486596 248.94599752 -180.56427002 243.65403748 C-180.57517073 234.76785978 -180.56084115 225.88198176 -180.53222656 216.99584961 C-180.49958587 206.74140723 -180.51014658 196.48768092 -180.543185 186.23325592 C-180.57046824 177.40996339 -180.57422779 168.58688565 -180.55855298 159.76356453 C-180.54922783 154.50219017 -180.54787118 149.24115167 -180.56777191 143.97979927 C-180.58518502 139.03083641 -180.57293611 134.08279081 -180.53840637 129.13392639 C-180.53051511 127.32442684 -180.53267868 125.51484925 -180.54598236 123.70538139 C-180.6292121 111.22876192 -179.10629503 102.71945362 -170.6171875 92.98828125 C-165.9710431 88.70746382 -160.41296859 85.89551129 -154.875 82.9375 C-152.61511955 81.70192058 -150.35600539 80.46493858 -148.09765625 79.2265625 C-147.00340332 78.63004883 -145.90915039 78.03353516 -144.78173828 77.41894531 C-140.91371557 75.28963276 -137.10484776 73.07309293 -133.3125 70.8125 C-126.34313674 66.67543505 -119.33496769 62.60877654 -112.3125 58.5625 C-111.20527588 57.92449463 -110.09805176 57.28648926 -108.95727539 56.62915039 C-106.68662932 55.32110523 -104.41587642 54.01324552 -102.14501953 52.70556641 C-96.6783002 49.55667946 -91.21425113 46.40316736 -85.75 43.25 C-83.58334689 41.9999765 -81.41668021 40.74997653 -79.25 39.5 C-78.1775 38.88125 -77.105 38.2625 -76 37.625 C-72.75 35.75 -69.5 33.875 -66.25 32 C-65.17621094 31.38044434 -64.10242188 30.76088867 -62.99609375 30.12255859 C-60.84266491 28.88032038 -58.68902116 27.63845463 -56.53515625 26.39697266 C-51.50793245 23.49870197 -46.48278998 20.59701928 -41.46557617 17.68145752 C-39.70024789 16.65584372 -37.93421529 15.63145336 -36.16796875 14.60742188 C-33.9608368 13.32728534 -31.75501077 12.04489334 -29.55078125 10.75976562 C-26.62940642 9.06716369 -23.69345624 7.4038346 -20.75 5.75 C-19.8950293 5.25113281 -19.04005859 4.75226562 -18.15917969 4.23828125 C-12.04889046 0.87006528 -6.95132247 -0.12165122 0 0 Z M-91.2253418 130.68237305 C-96.47351298 137.90088396 -100.83328552 145.74031888 -104.75 153.75 C-105.76578125 153.65460938 -106.7815625 153.55921875 -107.828125 153.4609375 C-122.21811868 152.24085142 -134.41117413 153.03670355 -146.0390625 162.640625 C-154.40392453 170.5982091 -159.67410795 179.89212077 -160.18359375 191.5625 C-160.20064947 193.62492989 -160.20171489 195.68754857 -160.1875 197.75 C-160.20748047 198.77867187 -160.22746094 199.80734375 -160.24804688 200.8671875 C-160.24034462 212.97513354 -154.45419426 223.18365157 -146.4609375 232.08984375 C-134.70368367 243.498138 -120.25854147 244.42555353 -104.75 244.75 C-104.50991211 245.30236328 -104.26982422 245.85472656 -104.02246094 246.42382812 C-91.30792443 275.29766737 -72.30267459 297.46571768 -42.75 309.75 C-28.58030946 315.17292678 -14.77699841 317.12694479 0.375 317.0625 C1.05464813 317.06067719 1.73429626 317.05885437 2.43453979 317.05697632 C31.42523614 316.92632433 58.20223956 308.73051039 79.375 288.0625 C91.45980577 275.82117532 99.43953992 260.80897096 105.25 244.75 C107.09851563 244.71132813 107.09851563 244.71132813 108.984375 244.671875 C125.73049104 244.16683071 138.46723196 241.04518671 150.5 228.625 C159.96506316 217.45123376 162.04231123 204.97802268 161.42480469 190.85791016 C160.48232478 179.49286611 154.03118034 168.63848185 145.5 161.3125 C133.67492588 152.6086747 120.42223716 152.46207645 106.25 152.75 C105.97027344 152.01136719 105.69054687 151.27273437 105.40234375 150.51171875 C94.8684624 123.85524087 72.72745208 106.25796257 47.0625 94.83203125 C-1.56056482 74.33194663 -58.51127852 87.43515052 -91.2253418 130.68237305 Z " fill="#512C03" transform="translate(179.75,-0.75)"/>
<path d="M0 0 C0.96953613 0.01466309 1.93907227 0.02932617 2.93798828 0.04443359 C10.80132266 0.36557327 16.52910398 2.20106571 23.20800781 6.46582031 C25.6113737 7.97726275 28.06133111 9.3909507 30.5234375 10.8046875 C34.62034825 13.16116329 38.70245004 15.54041465 42.7734375 17.94140625 C49.2017352 21.72898958 55.65921373 25.46436108 62.125 29.1875 C63.20426758 29.80947266 64.28353516 30.43144531 65.39550781 31.07226562 C67.58614966 32.3346694 69.776905 33.59687623 71.96777344 34.85888672 C77.39659942 37.98680148 82.82319281 41.11858448 88.25 44.25 C90.41665583 45.50001879 92.5833225 46.75001878 94.75 48 C99.08333333 50.5 103.41666667 53 107.75 55.5 C108.82338623 56.1192334 109.89677246 56.7384668 111.00268555 57.37646484 C113.16049803 58.62141282 115.31821353 59.8665289 117.47583008 61.11181641 C123.02716592 64.31552651 128.58036541 67.5159363 134.13671875 70.7109375 C139.57582922 73.83915266 145.00884049 76.9777095 150.4375 80.12402344 C152.94331544 81.57269799 155.4552135 83.01010068 157.96875 84.4453125 C171.80550602 92.42447031 171.80550602 92.42447031 175.25 97.75 C175.61241694 99.41058509 175.94868627 101.0772481 176.25 102.75 C175.39341797 103.23073975 175.39341797 103.23073975 174.51953125 103.72119141 C158.21412941 112.88163875 142.03244688 122.24035914 125.90722656 131.71386719 C123.66394984 133.03173587 121.42006569 134.34857119 119.17553711 135.66430664 C117.05771219 136.90581224 114.94127832 138.14969462 112.82641602 139.39624023 C111.40220337 140.23070679 111.40220337 140.23070679 109.94921875 141.08203125 C109.11221436 141.57421143 108.27520996 142.0663916 107.4128418 142.57348633 C105.25 143.75 105.25 143.75 102.25 144.75 C101.57517578 143.44289062 101.57517578 143.44289062 100.88671875 142.109375 C85.54762038 113.34145282 56.46470094 98.10017655 26.25 88.75 C-2.88538679 79.89084599 -30.58559538 88.19888817 -56.99609375 102.13671875 C-77.28960841 114.02497627 -90.62128396 129.39447321 -101.75 149.75 C-102.74106254 151.42199666 -103.73773581 153.09075349 -104.75 154.75 C-105.76578125 154.65460938 -106.7815625 154.55921875 -107.828125 154.4609375 C-122.10392099 153.25053391 -134.18372125 154.02825893 -145.81640625 163.41796875 C-153.86489028 171.01448608 -158.69797158 180.45866731 -159.18359375 191.5625 C-159.20064947 193.62492989 -159.20171489 195.68754857 -159.1875 197.75 C-159.2174707 199.29300781 -159.2174707 199.29300781 -159.24804688 200.8671875 C-159.24020056 213.20159277 -153.19727391 223.9187591 -144.75 232.75 C-132.80941837 242.59790238 -119.579906 243.43975092 -104.75 243.75 C-103.54749842 245.99307028 -102.3630838 248.2428791 -101.1875 250.5 C-100.84525391 251.13421875 -100.50300781 251.7684375 -100.15039062 252.421875 C-97.69912102 257.17585241 -97.69912102 257.17585241 -97.93359375 259.82177734 C-98.98929488 262.31517672 -99.98970318 262.82200707 -102.37890625 264.0546875 C-103.15363281 264.46549561 -103.92835937 264.87630371 -104.7265625 265.29956055 C-105.57992187 265.73695557 -106.43328125 266.17435059 -107.3125 266.625 C-109.15912979 267.60510609 -111.00411625 268.58831317 -112.84765625 269.57421875 C-113.81848145 270.09161621 -114.78930664 270.60901367 -115.78955078 271.14208984 C-120.67512467 273.79559385 -125.46005032 276.61607749 -130.25 279.4375 C-140.70200253 285.57611433 -151.21260553 291.60608367 -161.75 297.59643555 C-162.88050781 298.24008057 -164.01101562 298.88372559 -165.17578125 299.546875 C-166.68265503 300.40297363 -166.68265503 300.40297363 -168.2199707 301.27636719 C-170.1009888 302.371979 -171.93876691 303.54251127 -173.75 304.75 C-174.74 304.75 -175.73 304.75 -176.75 304.75 C-179.51404967 300.05306808 -180.18572848 296.19865663 -180.15113831 290.85139465 C-180.15793498 290.07407083 -180.16473164 289.296747 -180.17173427 288.49586791 C-180.19067006 285.9005096 -180.18827181 283.30562467 -180.18579102 280.71020508 C-180.19477099 278.84541214 -180.20497978 276.98062478 -180.21632385 275.11584473 C-180.24280796 270.05567559 -180.24985677 264.99565869 -180.25177121 259.93542695 C-180.25390524 256.77103424 -180.26031304 253.6066801 -180.26826286 250.44229698 C-180.29601409 239.39404219 -180.30826904 228.34589591 -180.3059082 217.29760742 C-180.30410733 207.01375757 -180.33573564 196.73038057 -180.38313919 186.44665033 C-180.42243009 177.60649301 -180.43845714 168.76648979 -180.43654197 159.92624587 C-180.43577872 154.65134824 -180.44423715 149.37687066 -180.47607613 144.10206032 C-180.50522819 139.13681063 -180.50528407 134.1723793 -180.48352623 129.20709991 C-180.48040178 127.39112585 -180.48739971 125.57509987 -180.5056076 123.7592144 C-180.62286336 111.24862101 -179.12922952 102.74839424 -170.6171875 92.98828125 C-165.9710431 88.70746382 -160.41296859 85.89551129 -154.875 82.9375 C-152.61511955 81.70192058 -150.35600539 80.46493858 -148.09765625 79.2265625 C-147.00340332 78.63004883 -145.90915039 78.03353516 -144.78173828 77.41894531 C-140.91371557 75.28963276 -137.10484776 73.07309293 -133.3125 70.8125 C-126.34313674 66.67543505 -119.33496769 62.60877654 -112.3125 58.5625 C-111.20527588 57.92449463 -110.09805176 57.28648926 -108.95727539 56.62915039 C-106.68662932 55.32110523 -104.41587642 54.01324552 -102.14501953 52.70556641 C-96.6783002 49.55667946 -91.21425113 46.40316736 -85.75 43.25 C-83.58334689 41.9999765 -81.41668021 40.74997653 -79.25 39.5 C-78.1775 38.88125 -77.105 38.2625 -76 37.625 C-72.75 35.75 -69.5 33.875 -66.25 32 C-65.17621094 31.38044434 -64.10242188 30.76088867 -62.99609375 30.12255859 C-60.84266491 28.88032038 -58.68902116 27.63845463 -56.53515625 26.39697266 C-51.50793245 23.49870197 -46.48278998 20.59701928 -41.46557617 17.68145752 C-39.70024789 16.65584372 -37.93421529 15.63145336 -36.16796875 14.60742188 C-33.9608368 13.32728534 -31.75501077 12.04489334 -29.55078125 10.75976562 C-26.62940642 9.06716369 -23.69345624 7.4038346 -20.75 5.75 C-19.8950293 5.25113281 -19.04005859 4.75226562 -18.15917969 4.23828125 C-12.04889046 0.87006528 -6.95132247 -0.12165122 0 0 Z " fill="#856843" transform="translate(179.75,-0.75)"/>
<path d="M0 0 C6.76094574 6.6200927 10.05009973 16.24317604 10.4375 25.625 C9.95560009 34.37951508 7.12043872 41.95737766 2 49 C1.4225 49.86625 0.845 50.7325 0.25 51.625 C-2.47318705 54.49947522 -5.49070757 56.38654111 -8.80078125 58.53125 C-11.75757497 60.50594705 -13.85571197 62.14094929 -16 65 C-15.62209416 68.98836006 -14.55752023 72.75345821 -13.48828125 76.60668945 C-10.29289685 88.31601694 -9.15881534 98.8547511 -15 110 C-21.6003513 120.69951685 -33.74157716 125.84145377 -45.48168945 128.97509766 C-69.34543443 134.49732903 -99.59739065 133.36958795 -120.875 120.1875 C-129.24983274 114.1637671 -134.945339 106.19649523 -137 96 C-137.88081685 86.54204861 -136.26829974 77.53659947 -132 69 C-131.45803742 65.57916582 -131.45803742 65.57916582 -132 62 C-134.33067093 59.73531971 -134.33067093 59.73531971 -137.5 58.125 C-147.51869903 51.99327264 -153.30674653 44.75307377 -156.75 33.5625 C-158.0174722 20.57091 -155.22819714 10.3276996 -147 0 C-136.96374536 -9.90354383 -126.70780606 -13.27094956 -112.92529297 -13.39819336 C-104.15348101 -13.28010175 -96.20703975 -11.08484836 -87.86694336 -8.55029297 C-73.50394909 -4.3167126 -58.3497169 -8.41122025 -44.37890625 -12.3671875 C-28.02143201 -16.71843681 -12.44956381 -10.93432085 0 0 Z M-126 22 C-126.763125 22.639375 -127.52625 23.27875 -128.3125 23.9375 C-130.98058804 28.77958569 -130.74803906 33.59915796 -130 39 C-127.91069996 42.73089292 -125.90067099 44.41235847 -122 46 C-116.74208377 46.62977827 -110.98504473 47.16577147 -106.375 44.1875 C-103.62099827 41.65091946 -102.11379258 40.03743369 -101.69921875 36.2578125 C-101.69535156 35.22398437 -101.69148438 34.19015625 -101.6875 33.125 C-101.67074219 32.09632813 -101.65398437 31.06765625 -101.63671875 30.0078125 C-102.04938184 26.59113959 -102.97295979 24.75580943 -105 22 C-111.12657652 17.66656782 -120.09222152 16.96101247 -126 22 Z M-44.8125 23.625 C-47.3411776 28.6823552 -47.43929456 33.42370777 -45.9375 38.8125 C-43.56780514 42.71103025 -42.20149435 44.15723932 -38 46 C-32.39162987 46.74624404 -27.65359274 46.72525997 -22.4375 44.4375 C-19.05406331 41.05406331 -17.08121569 37.84796367 -16.94140625 32.9453125 C-17.32181817 28.65556111 -18.25343762 25.31481666 -21 22 C-28.44980817 16.73062349 -38.10867577 17.61467483 -44.8125 23.625 Z M-91 47 C-91.63415653 52.57036117 -91.63415653 52.57036117 -89.4375 57.5 C-86.00863886 59.61006839 -83.95779649 59.62491523 -80 59 C-76.85341334 57.10350449 -76.85341334 57.10350449 -75 54 C-75 50.49269399 -75.12562824 48.15161159 -77.28125 45.3125 C-79.47481695 43.63741251 -80.76297658 43.59762977 -83.5 43.625 C-84.66015625 43.61339844 -84.66015625 43.61339844 -85.84375 43.6015625 C-88.53046141 44.09802004 -89.40813918 44.79933975 -91 47 Z M-70.5625 45.5625 C-72.57975697 48.98306617 -72.6269883 51.09873948 -72 55 C-69.27151928 58.22456813 -67.62057913 58.91290117 -63.4375 59.5 C-60.00987581 59.24297891 -60.00987581 59.24297891 -57.5625 57.4375 C-55.41120253 54.08147594 -55.51052709 51.91578329 -56 48 C-56.74536751 45.4228264 -56.74536751 45.4228264 -59 44 C-63.31897247 43.20655241 -66.77787823 43.2548038 -70.5625 45.5625 Z M-105.0625 88.1875 C-106.30650695 91.91952086 -106.03145652 94.21799275 -105 98 C-103.48949724 100.33244182 -103.48949724 100.33244182 -101 102 C-98.28763223 102.33914044 -95.99676352 102.44506917 -93.296875 102.35546875 C-92.54142395 102.34743729 -91.7859729 102.33940582 -91.00762939 102.33113098 C-88.58770025 102.30219495 -86.16937469 102.24617346 -83.75 102.1875 C-80.5990595 102.13033349 -77.44804204 102.08552888 -74.296875 102.04296875 C-73.13303284 102.02204666 -73.13303284 102.02204666 -71.94567871 102.0007019 C-65.38571515 101.91517066 -58.94911544 102.39085012 -52.42675781 103.06762695 C-48.48716135 102.98987915 -46.31203559 102.08596335 -43 100 C-41.26276246 96.52552492 -41.41314793 92.79092945 -42 89 C-45.4556295 84.81135818 -48.78824257 84.55662078 -54 84 C-57.12435617 83.85871929 -60.24383765 83.83619603 -63.37109375 83.83203125 C-64.69283348 83.82703865 -64.69283348 83.82703865 -66.04127502 83.82194519 C-67.89608237 83.81690582 -69.7508987 83.81453594 -71.60571289 83.81469727 C-74.42544622 83.81250935 -77.24478876 83.79431785 -80.06445312 83.77539062 C-81.87499868 83.77245626 -83.68554607 83.77047175 -85.49609375 83.76953125 C-86.32966904 83.76234573 -87.16324432 83.75516022 -88.02207947 83.74775696 C-97.35996036 83.71569255 -97.35996036 83.71569255 -105.0625 88.1875 Z " fill="#512C03" transform="translate(255,155)"/>
<path d="M0 0 C2.49620516 5.08630411 3.43644773 9.1928543 3.38768005 14.88719177 C3.39306559 15.65115251 3.39845113 16.41511325 3.40399987 17.20222431 C3.41823631 19.7462298 3.41118658 22.28971178 3.40405273 24.83374023 C3.40975856 26.66413794 3.41672364 28.49453209 3.42485046 30.32492065 C3.44277329 35.28568032 3.44161515 40.24626301 3.43590808 45.20704532 C3.43281504 49.35218293 3.43890995 53.49728661 3.44494683 57.6424194 C3.4589875 67.42285591 3.45743449 77.20320506 3.44604492 86.98364258 C3.43456326 97.06582263 3.44864128 107.1477367 3.4754414 117.2298817 C3.49760842 125.89421409 3.50423353 134.55846304 3.49836498 143.22282177 C3.49499673 148.39410559 3.4974019 153.56521889 3.51461601 158.73647881 C3.53009906 163.59982967 3.52611444 168.46278689 3.50731087 173.32612228 C3.5036288 175.10786807 3.50672229 176.88964312 3.51719666 178.67136192 C3.53043495 181.10996707 3.51883515 183.54727435 3.50120544 185.98582458 C3.51561295 187.03511923 3.51561295 187.03511923 3.53031152 188.10561174 C3.44946496 193.56721868 1.69028669 197.39291775 -1 202 C-11.00525898 197.26890757 -20.45889868 191.58876779 -30 186 C-46.45039886 176.35154427 -46.45039886 176.35154427 -63 166.875 C-63.60352295 166.5332373 -64.2070459 166.19147461 -64.82885742 165.83935547 C-68.61933218 163.71378576 -72.46572478 161.77801563 -76.3984375 159.93408203 C-78 159 -78 159 -79 157 C-78.11588959 154.42085672 -77.1740129 151.94813753 -76.125 149.4375 C-75.84269531 148.73947266 -75.56039063 148.04144531 -75.26953125 147.32226562 C-73.1541718 142.1541718 -73.1541718 142.1541718 -72 141 C-69.92245477 140.90469976 -67.84439637 140.8157357 -65.76538086 140.76123047 C-50.34346665 140.32014532 -38.2436495 136.77760364 -27.25 125.375 C-17.747449 113.86835649 -15.80772138 100.37728159 -17 86 C-19.08519109 75.08415025 -24.52880997 65.28001698 -33.375 58.5 C-44.98805788 50.7842591 -57.39099554 50.7235191 -71 51 C-74.03362311 45.66082334 -74.03362311 45.66082334 -73.8984375 43.00390625 C-72.58693476 40.07868492 -70.82654169 39.30140354 -68.0625 37.6875 C-67.50457764 37.35758057 -66.94665527 37.02766113 -66.37182617 36.68774414 C-64.25609427 35.44392038 -62.12820378 34.22236191 -60 33 C-58.08828418 31.89106876 -56.17684701 30.78165708 -54.265625 29.671875 C-49.2844308 26.78585955 -44.29581188 23.91299559 -39.30343628 21.04637146 C-32.76008648 17.28906667 -26.22358978 13.5199158 -19.6875 9.75 C-18.59091064 9.11827881 -17.49432129 8.48655762 -16.36450195 7.83569336 C-15.3405835 7.2453833 -14.31666504 6.65507324 -13.26171875 6.046875 C-12.36412842 5.52963867 -11.46653809 5.01240234 -10.54174805 4.47949219 C-8.79146477 3.46069316 -7.06442373 2.40124502 -5.35864258 1.30957031 C-3 0 -3 0 0 0 Z " fill="#613104" transform="translate(357,102)"/>
<path d="M0 0 C2.08835784 1.91337704 3.10558309 3.35876707 4.14453125 5.96484375 C1.08082671 7.87838678 -1.99055142 9.77764255 -5.078125 11.65234375 C-7.55143716 13.15433967 -9.98987735 14.69749242 -12.4140625 16.27734375 C-19.12100282 20.528182 -24.1414996 22.63836425 -32.2890625 22.07421875 C-35.95843901 21.91783741 -37.99284365 22.6894238 -40.85546875 24.96484375 C-42.56068239 28.2576701 -43.6864045 31.45765101 -44.85546875 34.96484375 C-46.46264648 36.12817383 -46.46264648 36.12817383 -48.5390625 37.234375 C-49.29783691 37.64574707 -50.05661133 38.05711914 -50.83837891 38.48095703 C-51.64839355 38.90876465 -52.4584082 39.33657227 -53.29296875 39.77734375 C-54.93559213 40.66537991 -56.57752379 41.5546968 -58.21875 42.4453125 C-59.01490723 42.87505371 -59.81106445 43.30479492 -60.63134766 43.74755859 C-64.78513736 46.02097193 -68.82833244 48.47570925 -72.85546875 50.96484375 C-73.84546875 48.98484375 -73.84546875 48.98484375 -74.85546875 46.96484375 C-76.64680853 46.91092382 -78.43860774 46.87208804 -80.23046875 46.83984375 C-81.22820312 46.81664062 -82.2259375 46.7934375 -83.25390625 46.76953125 C-86.01809048 46.69267527 -86.01809048 46.69267527 -87.85546875 48.96484375 C-87.66285511 50.51150255 -87.42728789 52.0529615 -87.16796875 53.58984375 C-87.1328125 56.19677734 -87.1328125 56.19677734 -87.85546875 58.96484375 C-90.2565918 60.9453125 -90.2565918 60.9453125 -93.4921875 62.77734375 C-94.07210449 63.11279205 -94.65202148 63.44824036 -95.24951172 63.79385376 C-96.48288205 64.5048727 -97.7209551 65.20778656 -98.96322632 65.90313721 C-100.81089992 66.9398369 -102.64206636 68.00066807 -104.4699707 69.07177734 C-107.47768079 70.83126315 -110.49763657 72.56798313 -113.52441406 74.29443359 C-115.38445742 75.35639435 -117.24109414 76.42415477 -119.09765625 77.4921875 C-120.29797798 78.17873364 -121.49849156 78.86494448 -122.69921875 79.55078125 C-123.76333984 80.15970215 -124.82746094 80.76862305 -125.92382812 81.39599609 C-128.52763003 82.78940307 -131.09069122 83.93666817 -133.85546875 84.96484375 C-133.45950877 81.08443595 -132.89148155 78.04551242 -131.29296875 74.46484375 C-129.6736874 70.52224567 -129.33593079 68.18667473 -129.85546875 63.96484375 C-132.18613968 61.70016346 -132.18613968 61.70016346 -135.35546875 60.08984375 C-145.37416778 53.95811639 -151.16221528 46.71791752 -154.60546875 35.52734375 C-155.87294095 22.53575375 -153.08366589 12.29254335 -144.85546875 1.96484375 C-134.81921411 -7.93870008 -124.56327481 -11.30610581 -110.78076172 -11.43334961 C-102.00894976 -11.315258 -94.0625085 -9.12000461 -85.72241211 -6.58544922 C-71.35941784 -2.35186885 -56.20518565 -6.4463765 -42.234375 -10.40234375 C-26.58460796 -14.56533597 -12.67575871 -9.37226669 0 0 Z M-123.85546875 23.96484375 C-124.61859375 24.60421875 -125.38171875 25.24359375 -126.16796875 25.90234375 C-128.83605679 30.74442944 -128.60350781 35.56400171 -127.85546875 40.96484375 C-125.76616871 44.69573667 -123.75613974 46.37720222 -119.85546875 47.96484375 C-114.59755252 48.59462202 -108.84051348 49.13061522 -104.23046875 46.15234375 C-101.47646702 43.61576321 -99.96926133 42.00227744 -99.5546875 38.22265625 C-99.55082031 37.18882812 -99.54695313 36.155 -99.54296875 35.08984375 C-99.52621094 34.06117188 -99.50945312 33.0325 -99.4921875 31.97265625 C-99.90485059 28.55598334 -100.82842854 26.72065318 -102.85546875 23.96484375 C-108.98204527 19.63141157 -117.94769027 18.92585622 -123.85546875 23.96484375 Z " fill="#856843" transform="translate(252.85546875,153.03515625)"/>
<path d="M0 0 C2.31887853 1.89184737 2.98340932 3.5012613 4.01171875 6.30078125 C4.33527344 7.15285156 4.65882813 8.00492188 4.9921875 8.8828125 C8.21342198 18.96996461 7.49101962 29.28912887 2.65234375 38.7890625 C1.45181858 40.75658987 0.17918846 42.62466361 -1.17578125 44.48828125 C-2.04203125 45.78765625 -2.04203125 45.78765625 -2.92578125 47.11328125 C-5.6489683 49.98775647 -8.66648882 51.87482236 -11.9765625 54.01953125 C-14.93335622 55.9942283 -17.03149322 57.62923054 -19.17578125 60.48828125 C-18.71952545 64.85083674 -17.61471774 69.09629101 -16.61328125 73.36328125 C-16.34386719 74.51570313 -16.07445312 75.668125 -15.796875 76.85546875 C-15.59191406 77.72429687 -15.38695312 78.593125 -15.17578125 79.48828125 C-18.88644041 78.1225988 -22.03483666 76.42741792 -25.36328125 74.30078125 C-32.43284671 69.88230284 -39.63921457 65.70977173 -46.86328125 61.55078125 C-47.45402435 61.2102774 -48.04476746 60.86977356 -48.65341187 60.51895142 C-54.84709843 56.87939587 -54.84709843 56.87939587 -61.17578125 53.48828125 C-60.84578125 52.49828125 -60.51578125 51.50828125 -60.17578125 50.48828125 C-59.83229025 45.15532693 -59.83229025 45.15532693 -62.17578125 40.48828125 C-65.74347677 39.75221626 -65.74347677 39.75221626 -69.17578125 39.48828125 C-66.39890769 36.24005646 -62.78516743 34.36645069 -59.11328125 32.30078125 C-58.47583984 31.93275391 -57.83839844 31.56472656 -57.18164062 31.18554688 C-52.43265161 28.48828125 -52.43265161 28.48828125 -50.17578125 28.48828125 C-49.94503906 29.10316406 -49.71429688 29.71804687 -49.4765625 30.3515625 C-48.98736328 31.56392578 -48.98736328 31.56392578 -48.48828125 32.80078125 C-48.17503906 33.60128906 -47.86179688 34.40179688 -47.5390625 35.2265625 C-45.78991909 38.12843652 -44.25188452 39.09566143 -41.17578125 40.48828125 C-35.6237752 41.31771957 -30.68867372 41.16647443 -25.55078125 38.86328125 C-22.72432411 36.03682411 -21.85728923 34.4258829 -21.17578125 30.48828125 C-21.3285916 23.29230273 -23.15150216 19.42083922 -28.17578125 14.48828125 C-27.56581299 14.14047607 -26.95584473 13.7926709 -26.32739258 13.43432617 C-23.54736135 11.84871786 -20.76781717 10.26225765 -17.98828125 8.67578125 C-17.02857422 8.12857422 -16.06886719 7.58136719 -15.08007812 7.01757812 C-14.14873047 6.48583984 -13.21738281 5.95410156 -12.2578125 5.40625 C-11.40421143 4.91922607 -10.55061035 4.43220215 -9.67114258 3.93041992 C-7.9212279 2.91909559 -6.19702909 1.86257134 -4.49414062 0.77392578 C-2.17578125 -0.51171875 -2.17578125 -0.51171875 0 0 Z " fill="#613104" transform="translate(258.17578125,159.51171875)"/>
<path d="M0 0 C0 10.56 0 21.12 0 32 C-3.79839783 33.89919892 -8.08781747 33.60231936 -12.05859375 32.3515625 C-18.55286048 29.3892654 -23.56232245 25.04124098 -26.625 18.5625 C-27.20543441 13.04837309 -25.84419908 9.36316967 -22.4453125 5.0078125 C-16.12715251 -1.75963886 -8.66877296 -4.33438648 0 0 Z " fill="#856843" transform="translate(75,182)"/>
<path d="M0 0 C5.31224635 3.27801635 8.00677817 8.36004151 9.97265625 14.1640625 C10.15239326 18.74735638 8.34649192 21.90955403 5.640625 25.48828125 C2.59411706 28.54905855 -1.16176106 30.32620197 -5.02734375 32.1640625 C-6.01734375 32.6590625 -6.01734375 32.6590625 -7.02734375 33.1640625 C-10.70064339 33.29763703 -13.52587334 33.3312193 -17.02734375 32.1640625 C-17.02734375 21.6040625 -17.02734375 11.0440625 -17.02734375 0.1640625 C-10.95607082 -2.26444667 -6.12606654 -2.52596963 0 0 Z " fill="#613104" transform="translate(302.02734375,181.8359375)"/>
</svg>
